<svg id="WebXPRT" xmlns="http://www.w3.org/2000/svg" viewBox="0 0 169.46 51.07"><defs><style>.cls-1{fill:none;}.cls-2{fill:#ed1b23;}.cls-3{fill:#262424;}</style></defs><title>WebXPRT-4-logo-</title><rect class="cls-1" width="169.46" height="51.07"/><path class="cls-2" d="M32.52,35.53h-2.3l-4-13.4c-.19-.59-.4-1.34-.64-2.24a12.35,12.35,0,0,1-.37-1.63,30.47,30.47,0,0,1-1,4L20.3,35.53H18l-5.32-20h2.46L18.3,27.88a44.86,44.86,0,0,1,1,4.71,33.45,33.45,0,0,1,1.1-4.9l3.58-12.16H26.4L30.17,27.8a38.37,38.37,0,0,1,1.1,4.79,41,41,0,0,1,1-4.74L35.4,15.53h2.47Z"/><path class="cls-2" d="M51.29,27a7.09,7.09,0,0,0-1.64-4.89,5.66,5.66,0,0,0-4.46-1.85,5.93,5.93,0,0,0-4.79,2.13,8.72,8.72,0,0,0-1.79,5.76,7.86,7.86,0,0,0,1.92,5.63,6.89,6.89,0,0,0,5.25,2,12.83,12.83,0,0,0,2.59-.22,11.65,11.65,0,0,0,2.28-.75v-2a12.15,12.15,0,0,1-4.79,1,4.61,4.61,0,0,1-3.56-1.37,5.94,5.94,0,0,1-1.34-4H51.29ZM41,26.59a5.46,5.46,0,0,1,1.26-3.25,3.7,3.7,0,0,1,2.88-1.18A3.38,3.38,0,0,1,47.9,23.3a5,5,0,0,1,1,3.29Z"/><path class="cls-2" d="M61.64,20.29a5.56,5.56,0,0,1,4.59,2A8.83,8.83,0,0,1,67.87,28a8.94,8.94,0,0,1-1.65,5.74,5.57,5.57,0,0,1-4.58,2A6.47,6.47,0,0,1,59,35.26a4.94,4.94,0,0,1-2-1.66h-.17l-.48,1.93H54.66V14.24h2.28v5.17c0,1.16,0,2.2-.11,3.12h.11A5.38,5.38,0,0,1,61.64,20.29Zm-.33,1.9A4,4,0,0,0,58,23.52a7.58,7.58,0,0,0-1,4.5A7.54,7.54,0,0,0,58,32.54a4,4,0,0,0,3.38,1.36,3.51,3.51,0,0,0,3.12-1.53,7.84,7.84,0,0,0,1-4.38,7.54,7.54,0,0,0-1-4.36A3.65,3.65,0,0,0,61.31,22.19Z"/><path class="cls-3" d="M87.18,35.53H82.33L77.68,28,73,35.53H68.49l6.64-10.32-6.22-9.68h4.68l4.31,7.19,4.23-7.19H86.7l-6.28,9.92Z"/><path class="cls-3" d="M102.39,21.77a6.08,6.08,0,0,1-2,4.93,8.61,8.61,0,0,1-5.74,1.71H92.82v7.12H88.57v-20H95a8.55,8.55,0,0,1,5.54,1.56A5.73,5.73,0,0,1,102.39,21.77Zm-9.57,3.17h1.39a4.68,4.68,0,0,0,2.93-.77,2.71,2.71,0,0,0,1-2.25,2.8,2.8,0,0,0-.81-2.21A3.87,3.87,0,0,0,94.74,19H92.82Z"/><path class="cls-3" d="M108.73,27.85v7.68h-4.24v-20h5.82q4.08,0,6,1.48a5.3,5.3,0,0,1,2,4.51,5.29,5.29,0,0,1-1,3.14,6.38,6.38,0,0,1-2.75,2.15q4.52,6.75,5.88,8.72h-4.7L111,27.85Zm0-3.44h1.37a5.24,5.24,0,0,0,3-.67,2.4,2.4,0,0,0,1-2.11,2.21,2.21,0,0,0-1-2,5.94,5.94,0,0,0-3-.6h-1.28Z"/><path class="cls-3" d="M129,35.53h-4.24V19.06h-5.44V15.53h15.11v3.53H129Z"/><path class="cls-3" d="M153.92,31.15h-2.7v4.36h-3.13V31.15H139V28.68l9.13-13.21h3.13v13h2.7Zm-5.83-2.66v-5c0-1.79,0-3.25.14-4.39h-.11a15.9,15.9,0,0,1-1.2,2.19l-5,7.22Z"/></svg>