<?xml version="1.0" encoding="utf-8"?>
<!-- Generator: Adobe Illustrator 26.0.1, SVG Export Plug-In . SVG Version: 6.00 Build 0)  -->
<svg version="1.1" id="Layer_1" xmlns="http://www.w3.org/2000/svg" xmlns:xlink="http://www.w3.org/1999/xlink" x="0px" y="0px"
	 viewBox="0 0 54 54" style="enable-background:new 0 0 54 54;" xml:space="preserve">
<style type="text/css">
	.st0{fill:url(#SVGID_1_);}
	.st1{fill:#F2F2F2;}
	.st2{fill:#002533;}
	.st3{fill:url(#SVGID_00000178162815432234098880000017738352089673062537_);}
	.st4{fill:none;}
</style>
<linearGradient id="SVGID_1_" gradientUnits="userSpaceOnUse" x1="-28.6" y1="1076.3" x2="18.7" y2="1076.3" gradientTransform="matrix(1 0 0 1 32 -1056)">
	<stop  offset="0" style="stop-color:#00D2C4"/>
	<stop  offset="1" style="stop-color:#0093FE"/>
</linearGradient>
<rect x="3.4" y="3.4" class="st0" width="47.3" height="33.8"/>
<circle class="st1" cx="13.5" cy="13.5" r="3.4"/>
<polygon class="st1" points="6.7,33.8 47.3,33.8 47.3,27 33.8,13.5 23.6,23.6 20.2,20.2 "/>
<path class="st2" d="M13.5,51.5c-0.5,0-0.8-0.3-0.8-0.8V49c0-0.5,0.3-0.8,0.8-0.8s0.8,0.3,0.8,0.8v1.7
	C14.3,51.1,13.9,51.5,13.5,51.5z"/>
<path class="st2" d="M13.5,46.4c-0.5,0-0.8-0.3-0.8-0.8v-5.1c0-0.5,0.3-0.8,0.8-0.8s0.8,0.3,0.8,0.8v5.1
	C14.3,46.1,13.9,46.4,13.5,46.4z"/>
<path class="st2" d="M27,51.5c-0.5,0-0.8-0.3-0.8-0.8v-5.1c0-0.5,0.3-0.8,0.8-0.8s0.8,0.3,0.8,0.8v5.1C27.8,51.1,27.4,51.5,27,51.5z
	"/>
<path class="st2" d="M27,43c-0.5,0-0.8-0.3-0.8-0.8v-1.7c0-0.5,0.3-0.8,0.8-0.8s0.8,0.3,0.8,0.8v1.7C27.8,42.7,27.4,43,27,43z"/>
<path class="st2" d="M40.5,48.1c-0.5,0-0.8-0.3-0.8-0.8v-6.8c0-0.5,0.3-0.8,0.8-0.8s0.8,0.3,0.8,0.8v6.8
	C41.3,47.8,40.9,48.1,40.5,48.1z"/>
<linearGradient id="SVGID_00000093886055381222033150000001747001864216549054_" gradientUnits="userSpaceOnUse" x1="9.9552" y1="1070.4" x2="44.0927" y2="1070.4" gradientTransform="matrix(1 0 0 1 0 -1024)">
	<stop  offset="0" style="stop-color:#00D2C4"/>
	<stop  offset="1" style="stop-color:#0093FE"/>
</linearGradient>
<path style="fill:url(#SVGID_00000093886055381222033150000001747001864216549054_);" d="M23.6,45.6h7v-3.4h-7V45.6z M37,50.6h7
	v-3.4h-7V50.6z M10,48.9h7v-3.4h-7V48.9z"/>
<rect class="st4" width="54" height="54"/>
</svg>
